# File produced by Open Asset Import Library (http://www.assimp.sf.net)
# (assimp v3.1.187496374)

mtllib Danger.obj.mtl

# 8 vertex positions
v  721.847 200.713 818.221
v  722.166 200.713 818.221
v  722.166 204.916 818.221
v  721.847 204.916 818.221
v  722.166 204.916 807.168
v  721.847 204.916 807.168
v  722.166 200.713 807.168
v  721.847 200.713 807.168

# 12 UV coordinates
vt 0.0316959 0.286439 0
vt 0.0805019 0.286441 0
vt 0.0804599 0.703617 0
vt 0.0316769 0.703615 0
vt 0.0804529 0.752413 0
vt 0.906027 0.703746 0
vt 0.90602 0.752539 0
vt 0.954833 0.703747 0
vt 0.906069 0.286569 0
vt 0.954853 0.286572 0
vt 0.906077 0.237773 0
vt 0.08051 0.237648 0

# 5 vertex normals
vn 0 0 1
vn 0 1 0
vn 0 0 -1
vn 0 -1 0
vn 1 0 0

# Mesh 'pCube1' with 10 faces
g pCube1
usemtl Red_Sign
f  1/1/1 2/2/1 3/3/1
f  1/1/1 3/3/1 4/4/1
f  4/5/2 3/3/2 5/6/2
f  4/5/2 5/6/2 6/7/2
f  6/8/3 5/6/3 7/9/3
f  6/8/3 7/9/3 8/10/3
f  8/11/4 7/9/4 2/2/4
f  8/11/4 2/2/4 1/12/4
f  2/2/5 7/9/5 5/6/5
f  2/2/5 5/6/5 3/3/5

